<svg xmlns="http://www.w3.org/2000/svg" viewBox="0 0 120 96" fill="none">
  <rect width="120" height="96" fill="#ffffff"/>
  <path fill="none" stroke="#1B3F5F" stroke-width="2.2" stroke-linecap="round" d="M14 82 Q60 90 106 82"/>
  <path fill="#8FA8C4" stroke="#1B3F5F" stroke-width="2.2" stroke-linejoin="round" d="M18 78 C14 66 16 50 28 42 C34 38 40 40 42 46 C38 54 34 64 36 74 C32 78 24 80 18 78 Z"/>
  <path fill="#8FA8C4" stroke="#1B3F5F" stroke-width="2.2" stroke-linejoin="round" d="M102 78 C106 66 104 50 92 42 C86 38 80 40 78 46 C82 54 86 64 84 74 C88 78 96 80 102 78 Z"/>
  <rect fill="none" stroke="#1B3F5F" stroke-width="2.2" x="44" y="44" width="32" height="28"/>
  <path fill="none" stroke="#1B3F5F" stroke-width="2.2" stroke-linejoin="round" d="M38 44 L60 26 L82 44"/>
  <rect fill="#1B3F5F" x="50" y="50" width="8" height="8"/>
  <rect fill="#1B3F5F" x="62" y="50" width="8" height="8"/>
  <rect fill="#1B3F5F" x="50" y="62" width="8" height="8"/>
  <rect fill="#1B3F5F" x="62" y="62" width="8" height="8"/>
</svg>
